<?xml version="1.0" encoding="UTF-8" standalone="no"?><svg xmlns="http://www.w3.org/2000/svg" xmlns:xlink="http://www.w3.org/1999/xlink" contentScriptType="application/ecmascript" contentStyleType="text/css" height="368px" preserveAspectRatio="none" style="width:1409px;height:368px;" version="1.1" viewBox="0 0 1409 368" width="1409px" zoomAndPan="magnify"><defs/><g><!--MD5=[a6f11bb19cee6b13000111f5ad685e8b]
cluster Dependencies--><path d="M25,273 L119,273 A4.5,4.5 0 0 1 122,276 L129,293.4844 L1394,293.4844 A3,3 0 0 1 1397,296.4844 L1397,353 A3,3 0 0 1 1394,356 L25,356 A3,3 0 0 1 22,353 L22,276 A3,3 0 0 1 25,273 " fill="#FFFFFF" style="stroke: #000000; stroke-width: 1.5;"/><line style="stroke: #000000; stroke-width: 1.5;" x1="22" x2="129" y1="293.4844" y2="293.4844"/><text fill="#000000" font-family="Tahoma, sans-serif" font-size="12" font-weight="bold" lengthAdjust="spacingAndGlyphs" textLength="94" x="26" y="287.0059">Dependencies</text><!--MD5=[9600a392951073a2eca10c2b8ccabe41]
entity @morphic-ts--><rect fill="#F8F8F8" height="34.4844" rx="3" ry="3" style="stroke: #383838; stroke-width: 1.0;" width="95" x="896.5" y="306"/><rect fill="#F8F8F8" height="5" style="stroke: #383838; stroke-width: 1.0;" width="10" x="891.5" y="311"/><rect fill="#F8F8F8" height="5" style="stroke: #383838; stroke-width: 1.0;" width="10" x="891.5" y="330.4844"/><text fill="#000000" font-family="Tahoma, sans-serif" font-size="12" lengthAdjust="spacingAndGlyphs" textLength="75" x="906.5" y="328.0059">@morphic-ts</text><!--MD5=[6d151e53a42aadf92577082572a20d90]
entity express--><rect fill="#F8F8F8" height="34.4844" rx="3" ry="3" style="stroke: #383838; stroke-width: 1.0;" width="65" x="1006.5" y="306"/><rect fill="#F8F8F8" height="5" style="stroke: #383838; stroke-width: 1.0;" width="10" x="1001.5" y="311"/><rect fill="#F8F8F8" height="5" style="stroke: #383838; stroke-width: 1.0;" width="10" x="1001.5" y="330.4844"/><text fill="#000000" font-family="Tahoma, sans-serif" font-size="12" lengthAdjust="spacingAndGlyphs" textLength="45" x="1016.5" y="328.0059">express</text><!--MD5=[a897b08d9b98e0785c332a552b15bea5]
entity fp-ts--><rect fill="#F8F8F8" height="34.4844" rx="3" ry="3" style="stroke: #383838; stroke-width: 1.0;" width="47" x="128.5" y="306"/><rect fill="#F8F8F8" height="5" style="stroke: #383838; stroke-width: 1.0;" width="10" x="123.5" y="311"/><rect fill="#F8F8F8" height="5" style="stroke: #383838; stroke-width: 1.0;" width="10" x="123.5" y="330.4844"/><text fill="#000000" font-family="Tahoma, sans-serif" font-size="12" lengthAdjust="spacingAndGlyphs" textLength="27" x="138.5" y="328.0059">fp-ts</text><!--MD5=[af7a65f79cc7953c6331310fdf858e59]
entity fp-ts-contrib--><rect fill="#F8F8F8" height="34.4844" rx="3" ry="3" style="stroke: #383838; stroke-width: 1.0;" width="92" x="1087" y="306"/><rect fill="#F8F8F8" height="5" style="stroke: #383838; stroke-width: 1.0;" width="10" x="1082" y="311"/><rect fill="#F8F8F8" height="5" style="stroke: #383838; stroke-width: 1.0;" width="10" x="1082" y="330.4844"/><text fill="#000000" font-family="Tahoma, sans-serif" font-size="12" lengthAdjust="spacingAndGlyphs" textLength="72" x="1097" y="328.0059">fp-ts-contrib</text><!--MD5=[f91e7389d0b33d0c6ac8dece6097a7a3]
entity hyper-ts--><rect fill="#F8F8F8" height="34.4844" rx="3" ry="3" style="stroke: #383838; stroke-width: 1.0;" width="67" x="1194.5" y="306"/><rect fill="#F8F8F8" height="5" style="stroke: #383838; stroke-width: 1.0;" width="10" x="1189.5" y="311"/><rect fill="#F8F8F8" height="5" style="stroke: #383838; stroke-width: 1.0;" width="10" x="1189.5" y="330.4844"/><text fill="#000000" font-family="Tahoma, sans-serif" font-size="12" lengthAdjust="spacingAndGlyphs" textLength="47" x="1204.5" y="328.0059">hyper-ts</text><!--MD5=[ee7adb30b3ceacce2738fb1e11fd81d2]
entity io-ts--><rect fill="#F8F8F8" height="34.4844" rx="3" ry="3" style="stroke: #383838; stroke-width: 1.0;" width="47" x="190.5" y="306"/><rect fill="#F8F8F8" height="5" style="stroke: #383838; stroke-width: 1.0;" width="10" x="185.5" y="311"/><rect fill="#F8F8F8" height="5" style="stroke: #383838; stroke-width: 1.0;" width="10" x="185.5" y="330.4844"/><text fill="#000000" font-family="Tahoma, sans-serif" font-size="12" lengthAdjust="spacingAndGlyphs" textLength="27" x="200.5" y="328.0059">io-ts</text><!--MD5=[dad03e7644abd02146e2c0d1e714b6dd]
entity io-ts-reporters--><rect fill="#F8F8F8" height="34.4844" rx="3" ry="3" style="stroke: #383838; stroke-width: 1.0;" width="104" x="1277" y="306"/><rect fill="#F8F8F8" height="5" style="stroke: #383838; stroke-width: 1.0;" width="10" x="1272" y="311"/><rect fill="#F8F8F8" height="5" style="stroke: #383838; stroke-width: 1.0;" width="10" x="1272" y="330.4844"/><text fill="#000000" font-family="Tahoma, sans-serif" font-size="12" lengthAdjust="spacingAndGlyphs" textLength="84" x="1287" y="328.0059">io-ts-reporters</text><!--MD5=[c68f284d5a6ac642e5572fb2ea621849]
entity io-ts-types--><rect fill="#F8F8F8" height="34.4844" rx="3" ry="3" style="stroke: #383838; stroke-width: 1.0;" width="83" x="252.5" y="306"/><rect fill="#F8F8F8" height="5" style="stroke: #383838; stroke-width: 1.0;" width="10" x="247.5" y="311"/><rect fill="#F8F8F8" height="5" style="stroke: #383838; stroke-width: 1.0;" width="10" x="247.5" y="330.4844"/><text fill="#000000" font-family="Tahoma, sans-serif" font-size="12" lengthAdjust="spacingAndGlyphs" textLength="63" x="262.5" y="328.0059">io-ts-types</text><!--MD5=[133a23b31f055f7e42ddeb5e0fd593ef]
entity kill-port--><rect fill="#F8F8F8" height="34.4844" rx="3" ry="3" style="stroke: #383838; stroke-width: 1.0;" width="63" x="350.5" y="306"/><rect fill="#F8F8F8" height="5" style="stroke: #383838; stroke-width: 1.0;" width="10" x="345.5" y="311"/><rect fill="#F8F8F8" height="5" style="stroke: #383838; stroke-width: 1.0;" width="10" x="345.5" y="330.4844"/><text fill="#000000" font-family="Tahoma, sans-serif" font-size="12" lengthAdjust="spacingAndGlyphs" textLength="43" x="360.5" y="328.0059">kill-port</text><!--MD5=[b1987a8e0865e39e4dc7caa7c130a3a0]
entity link-preview-js--><rect fill="#F8F8F8" height="34.4844" rx="3" ry="3" style="stroke: #383838; stroke-width: 1.0;" width="103" x="428.5" y="306"/><rect fill="#F8F8F8" height="5" style="stroke: #383838; stroke-width: 1.0;" width="10" x="423.5" y="311"/><rect fill="#F8F8F8" height="5" style="stroke: #383838; stroke-width: 1.0;" width="10" x="423.5" y="330.4844"/><text fill="#000000" font-family="Tahoma, sans-serif" font-size="12" lengthAdjust="spacingAndGlyphs" textLength="83" x="438.5" y="328.0059">link-preview-js</text><!--MD5=[5895c803ff18b59dc95ef6fa79631782]
entity mongad--><rect fill="#F8F8F8" height="34.4844" rx="3" ry="3" style="stroke: #383838; stroke-width: 1.0;" width="67" x="546.5" y="306"/><rect fill="#F8F8F8" height="5" style="stroke: #383838; stroke-width: 1.0;" width="10" x="541.5" y="311"/><rect fill="#F8F8F8" height="5" style="stroke: #383838; stroke-width: 1.0;" width="10" x="541.5" y="330.4844"/><text fill="#000000" font-family="Tahoma, sans-serif" font-size="12" lengthAdjust="spacingAndGlyphs" textLength="47" x="556.5" y="328.0059">mongad</text><!--MD5=[920f55dacc69cbaf43b0aa823f7e1721]
entity mongodb--><rect fill="#F8F8F8" height="34.4844" rx="3" ry="3" style="stroke: #383838; stroke-width: 1.0;" width="75" x="38.5" y="306"/><rect fill="#F8F8F8" height="5" style="stroke: #383838; stroke-width: 1.0;" width="10" x="33.5" y="311"/><rect fill="#F8F8F8" height="5" style="stroke: #383838; stroke-width: 1.0;" width="10" x="33.5" y="330.4844"/><text fill="#000000" font-family="Tahoma, sans-serif" font-size="12" lengthAdjust="spacingAndGlyphs" textLength="55" x="48.5" y="328.0059">mongodb</text><!--MD5=[11cd576ddc5620e0ef9b3ff8d611450c]
entity monocle-ts--><rect fill="#F8F8F8" height="34.4844" rx="3" ry="3" style="stroke: #383838; stroke-width: 1.0;" width="87" x="628.5" y="306"/><rect fill="#F8F8F8" height="5" style="stroke: #383838; stroke-width: 1.0;" width="10" x="623.5" y="311"/><rect fill="#F8F8F8" height="5" style="stroke: #383838; stroke-width: 1.0;" width="10" x="623.5" y="330.4844"/><text fill="#000000" font-family="Tahoma, sans-serif" font-size="12" lengthAdjust="spacingAndGlyphs" textLength="67" x="638.5" y="328.0059">monocle-ts</text><!--MD5=[a70e7d2129acaf1951bb43421c1c8bad]
entity p-map--><rect fill="#F8F8F8" height="34.4844" rx="3" ry="3" style="stroke: #383838; stroke-width: 1.0;" width="57" x="730.5" y="306"/><rect fill="#F8F8F8" height="5" style="stroke: #383838; stroke-width: 1.0;" width="10" x="725.5" y="311"/><rect fill="#F8F8F8" height="5" style="stroke: #383838; stroke-width: 1.0;" width="10" x="725.5" y="330.4844"/><text fill="#000000" font-family="Tahoma, sans-serif" font-size="12" lengthAdjust="spacingAndGlyphs" textLength="37" x="740.5" y="328.0059">p-map</text><!--MD5=[67d61c289a8d04d791faf47ef2c10c45]
entity rss-parser--><rect fill="#F8F8F8" height="34.4844" rx="3" ry="3" style="stroke: #383838; stroke-width: 1.0;" width="79" x="802.5" y="306"/><rect fill="#F8F8F8" height="5" style="stroke: #383838; stroke-width: 1.0;" width="10" x="797.5" y="311"/><rect fill="#F8F8F8" height="5" style="stroke: #383838; stroke-width: 1.0;" width="10" x="797.5" y="330.4844"/><text fill="#000000" font-family="Tahoma, sans-serif" font-size="12" lengthAdjust="spacingAndGlyphs" textLength="59" x="812.5" y="328.0059">rss-parser</text><!--MD5=[5bdbf3ee910d2d20a914f3c8715067fe]
entity _Decoder--><rect fill="#F8F8F8" height="34.4844" rx="3" ry="3" style="stroke: #000000; stroke-width: 0.5;" width="69" x="117.5" y="64"/><text fill="#000000" font-family="Tahoma, sans-serif" font-size="12" lengthAdjust="spacingAndGlyphs" textLength="49" x="127.5" y="86.0059">Decoder</text><ellipse cx="197.7548" cy="21.242" fill="#F8F8F8" rx="48.2548" ry="13.242" style="stroke: #383838; stroke-width: 0.5;"/><text fill="#000000" font-family="Tahoma, sans-serif" font-size="12" font-weight="bold" lengthAdjust="spacingAndGlyphs" textLength="64" x="165.7548" y="24.9842">feed-item</text><ellipse cx="298.234" cy="21.242" fill="#F8F8F8" rx="36.234" ry="13.242" style="stroke: #383838; stroke-width: 0.5;"/><text fill="#000000" font-family="Tahoma, sans-serif" font-size="12" font-weight="bold" lengthAdjust="spacingAndGlyphs" textLength="47" x="274.734" y="24.9842">index.d</text><!--MD5=[3efb8ea02175e95885344873cf6d6174]
entity _ObjectID--><rect fill="#F8F8F8" height="34.4844" rx="3" ry="3" style="stroke: #000000; stroke-width: 0.5;" width="73" x="115.5" y="128"/><text fill="#000000" font-family="Tahoma, sans-serif" font-size="12" lengthAdjust="spacingAndGlyphs" textLength="53" x="125.5" y="150.0059">ObjectID</text><!--MD5=[97f7f883b367300b6c5dbae912d3eba8]
entity _src--><rect fill="#F8F8F8" height="34.4844" rx="3" ry="3" style="stroke: #000000; stroke-width: 0.5;" width="41" x="694.5" y="192"/><text fill="#000000" font-family="Tahoma, sans-serif" font-size="12" font-weight="bold" lengthAdjust="spacingAndGlyphs" textLength="21" x="704.5" y="214.0059">src</text><!--MD5=[196dbb895f97e0bf35d89da4d8bf5c2c]
link _Decoder to fp-ts--><path d="M130.272,98.386 C121.607,106.272 112.609,116.513 108,128 C83.7524,188.429 119.085,265.072 139.391,301.2717 " fill="none" id="_Decoder-&gt;fp-ts" style="stroke: #000000; stroke-width: 0.5;"/><polygon fill="#000000" points="142.029,305.8979,141.0453,296.0983,139.5521,301.5545,134.0959,300.0613,142.029,305.8979" style="stroke: #000000; stroke-width: 0.5;"/><!--MD5=[9c0ba3eae829acffc4e39d66da514527]
link _Decoder to io-ts--><path d="M172.77,98.178 C181.476,106.161 190.773,116.537 196,128 C222.419,185.934 219.718,263.563 216.437,300.598 " fill="none" id="_Decoder-&gt;io-ts" style="stroke: #000000; stroke-width: 0.5;"/><polygon fill="#000000" points="215.952,305.7605,220.776,297.174,216.4195,300.7824,212.8111,296.4259,215.952,305.7605" style="stroke: #000000; stroke-width: 0.5;"/><!--MD5=[0378c8ea0b78d900f02c0575b9576977]
link _Decoder to mongodb--><path d="M125.552,98.151 C115.23,105.866 104.3645,116.041 98,128 C67.9469,184.47 70.2474,263.109 73.5325,300.5447 " fill="none" id="_Decoder-&gt;mongodb" style="stroke: #000000; stroke-width: 0.5;"/><polygon fill="#000000" points="74.0206,305.7614,77.1647,296.4279,73.5547,300.7831,69.1995,297.1732,74.0206,305.7614" style="stroke: #000000; stroke-width: 0.5;"/><!--MD5=[885260d35ab799fa99a84e19499d627b]
link _Decoder to _ObjectID--><path d="M152,98.29 C152,105.636 152,114.416 152,122.31 " fill="none" id="_Decoder-&gt;_ObjectID" style="stroke: #000000; stroke-width: 0.5;"/><polygon fill="#000000" points="152,127.604,156,118.604,152,122.604,148,118.604,152,127.604" style="stroke: #000000; stroke-width: 0.5;"/><!--MD5=[3e13e302077ebd47419b74621b663f21]
link <b>feed-item</b> to _Decoder--><path d="M188.469,34.018 C182.589,41.431 174.896,51.132 168.092,59.711 " fill="none" id="&lt;b&gt;feed-item&lt;/b&gt;-&gt;_Decoder" style="stroke: #000000; stroke-width: 1.0;"/><polygon fill="#000000" points="164.835,63.817,173.561,59.2502,167.9416,59.8992,167.2925,54.2797,164.835,63.817" style="stroke: #000000; stroke-width: 1.0;"/><!--MD5=[74611c305bbc78f666043436133a016b]
link <b>feed-item</b> to io-ts--><path d="M205.973,33.88 C219.382,55.048 245,101.101 245,144 C245,144 245,144 245,210 C245,242.637 232.622,278.7485 223.509,300.9117 " fill="none" id="&lt;b&gt;feed-item&lt;/b&gt;-&gt;io-ts" style="stroke: #000000; stroke-width: 1.0;"/><polygon fill="#000000" points="221.504,305.6934,228.6734,298.9406,223.4377,301.0824,221.2959,295.8467,221.504,305.6934" style="stroke: #000000; stroke-width: 1.0;"/><!--MD5=[b956c3c0c34c1e14b4c0e600e0fc7536]
link _ObjectID to fp-ts--><path d="M152,162.242 C152,194.068 152,264.64 152,300.3726 " fill="none" id="_ObjectID-&gt;fp-ts" style="stroke: #000000; stroke-width: 0.5;"/><polygon fill="#000000" points="152,305.7971,156,296.7971,152,300.7971,148,296.7971,152,305.7971" style="stroke: #000000; stroke-width: 0.5;"/><!--MD5=[17b4dcbadbb271c797b2ae6a3fc29c83]
link _ObjectID to io-ts--><path d="M157.722,162.242 C168.979,194.199 193.999,265.222 206.536,300.812 " fill="none" id="_ObjectID-&gt;io-ts" style="stroke: #000000; stroke-width: 0.5;"/><polygon fill="#000000" points="208.292,305.7971,209.074,295.9793,206.6305,301.0812,201.5286,298.6377,208.292,305.7971" style="stroke: #000000; stroke-width: 0.5;"/><!--MD5=[a60aa3f81b126dbec5aea61a1dde715f]
link _ObjectID to mongodb--><path d="M144.986,162.242 C131.187,194.199 100.5179,265.222 85.1494,300.812 " fill="none" id="_ObjectID-&gt;mongodb" style="stroke: #000000; stroke-width: 0.5;"/><polygon fill="#000000" points="82.9967,305.7971,90.2368,299.1202,84.9788,301.2068,82.8922,295.9488,82.9967,305.7971" style="stroke: #000000; stroke-width: 0.5;"/><!--MD5=[d3361d2f54dedba4dd8d0d0c2197d0b4]
link _src to @morphic-ts--><path d="M735.678,213.126 C769.753,218.993 838.908,233.963 889,265 C904.543,274.6306 918.778,289.6346 928.871,301.8318 " fill="none" id="_src-&gt;@morphic-ts" style="stroke: #000000; stroke-width: 1.0;"/><polygon fill="#000000" points="932.13,305.8488,929.5654,296.3397,928.9796,301.9662,923.3532,301.3804,932.13,305.8488" style="stroke: #000000; stroke-width: 1.0;"/><!--MD5=[a6d8f84db7705581caadaf2790b8284f]
link _src to express--><path d="M735.75,211.994 C793.538,217.86 954.961,236.455 999,265 C1012.55,273.7846 1022.85,288.9234 1029.61,301.3922 " fill="none" id="_src-&gt;express" style="stroke: #000000; stroke-width: 1.0;"/><polygon fill="#000000" points="1031.93,305.8485,1031.307,296.0194,1029.6144,301.417,1024.2167,299.7244,1031.93,305.8485" style="stroke: #000000; stroke-width: 1.0;"/><!--MD5=[c103dfc60bbf72da249c8a3150048a67]
link _src to fp-ts--><path d="M694.47,209.636 C607.373,208.46 268.959,207.713 183,265 C170.504,273.3276 162.617,288.4381 157.926,301.0094 " fill="none" id="_src-&gt;fp-ts" style="stroke: #000000; stroke-width: 1.0;"/><polygon fill="#000000" points="156.224,305.8597,162.9783,298.6917,157.8795,301.1417,155.4295,296.0429,156.224,305.8597" style="stroke: #000000; stroke-width: 1.0;"/><!--MD5=[3681f549d6f2f4403a37cfd4d44beaa3]
link _src to fp-ts-contrib--><path d="M735.805,211.366 C803.75,216.101 1018.24,233.275 1079,265 C1095.39,273.5593 1109.58,289.0543 1119.29,301.7303 " fill="none" id="_src-&gt;fp-ts-contrib" style="stroke: #000000; stroke-width: 1.0;"/><polygon fill="#000000" points="1122.41,305.907,1120.2392,296.3004,1119.4222,301.8979,1113.8246,301.0809,1122.41,305.907" style="stroke: #000000; stroke-width: 1.0;"/><!--MD5=[159ff388eb2f521b75b94582636bea89]
link _src to hyper-ts--><path d="M735.736,210.228 C816.415,211.443 1108.78,218.997 1187,265 C1201.13,273.3104 1211.73,288.6197 1218.61,301.2811 " fill="none" id="_src-&gt;hyper-ts" style="stroke: #000000; stroke-width: 1.0;"/><polygon fill="#000000" points="1220.97,305.8081,1220.3448,295.9791,1218.6533,301.3772,1213.2553,299.6858,1220.97,305.8081" style="stroke: #000000; stroke-width: 1.0;"/><!--MD5=[3f40ecef6d83cdfc18ae6286e78b6a61]
link _src to io-ts--><path d="M694.313,212.357 C603.843,222.67 247.377,263.393 245,265 C232.561,273.4116 224.671,288.5186 219.965,301.0673 " fill="none" id="_src-&gt;io-ts" style="stroke: #000000; stroke-width: 1.0;"/><polygon fill="#000000" points="218.256,305.9077,225.0236,298.7523,219.9203,301.1928,217.4798,296.0895,218.256,305.9077" style="stroke: #000000; stroke-width: 1.0;"/><!--MD5=[aabe3fd7510a97ee44a76502c478cbee]
link _src to io-ts-reporters--><path d="M735.658,210.27 C824.15,211.695 1171.16,220.098 1269,265 C1286.99,273.2555 1302.99,289.1302 1313.93,302.0343 " fill="none" id="_src-&gt;io-ts-reporters" style="stroke: #000000; stroke-width: 1.0;"/><polygon fill="#000000" points="1317.17,305.932,1314.4978,296.4526,1313.9758,302.0853,1308.3431,301.5633,1317.17,305.932" style="stroke: #000000; stroke-width: 1.0;"/><!--MD5=[a74eb638c0e463e0fa5ff2c65f170e88]
link _src to io-ts-types--><path d="M694.47,214.162 C649.001,223.239 536.288,244.962 441,257 C419.322,259.739 362.47,255.083 343,265 C327.12,273.0882 314.239,288.7674 305.676,301.6372 " fill="none" id="_src-&gt;io-ts-types" style="stroke: #000000; stroke-width: 1.0;"/><polygon fill="#000000" points="302.939,305.879,311.1794,300.485,305.6497,301.6776,304.4571,296.1479,302.939,305.879" style="stroke: #000000; stroke-width: 1.0;"/><!--MD5=[db11e8e89341290efefe006fbcbc22ed]
link _src to kill-port--><path d="M694.315,216.276 C659.512,226.567 586.88,246.891 524,257 C501.333,260.644 440.876,253.511 421,265 C406.947,273.1235 396.851,288.5949 390.456,301.3712 " fill="none" id="_src-&gt;kill-port" style="stroke: #000000; stroke-width: 1.0;"/><polygon fill="#000000" points="388.267,305.9377,395.7643,299.5509,390.4282,301.4289,388.5502,296.0929,388.267,305.9377" style="stroke: #000000; stroke-width: 1.0;"/><!--MD5=[a197a3a1744bf7f4fee6d555575e3006]
link _src to link-preview-js--><path d="M694.412,218.302 C668.362,228.555 621.948,245.985 581,257 C562.65,261.936 555.871,256.256 539,265 C521.959,273.8325 506.509,289.1619 495.698,301.7001 " fill="none" id="_src-&gt;link-preview-js" style="stroke: #000000; stroke-width: 1.0;"/><polygon fill="#000000" points="492.214,305.8318,501.0736,301.5298,495.4371,302.0093,494.9576,296.3728,492.214,305.8318" style="stroke: #000000; stroke-width: 1.0;"/><!--MD5=[275fe6eae3f031609e7f91579b2d9adc]
link _src to mongad--><path d="M694.317,218.99 C674.111,228.45 643.235,244.766 621,265 C609.459,275.5022 599.209,289.7533 591.844,301.3783 " fill="none" id="_src-&gt;mongad" style="stroke: #000000; stroke-width: 1.0;"/><polygon fill="#000000" points="589.067,305.854,597.2108,300.3152,591.7031,301.6053,590.413,296.0975,589.067,305.854" style="stroke: #000000; stroke-width: 1.0;"/><!--MD5=[2c5761db8f00ab7abbcbd6d4ce48cd87]
link _src to monocle-ts--><path d="M708.839,226.047 C701.24,245.841 688.305,279.5312 679.96,301.2675 " fill="none" id="_src-&gt;monocle-ts" style="stroke: #000000; stroke-width: 1.0;"/><polygon fill="#000000" points="678.149,305.9829,685.1094,299.0149,679.9414,301.3152,677.6411,296.1471,678.149,305.9829" style="stroke: #000000; stroke-width: 1.0;"/><!--MD5=[66d66cbc54d461607222c5eb6756b0a3]
link _src to p-map--><path d="M721.304,226.047 C729.08,245.841 742.316,279.5312 750.855,301.2675 " fill="none" id="_src-&gt;p-map" style="stroke: #000000; stroke-width: 1.0;"/><polygon fill="#000000" points="752.708,305.9829,753.1405,296.1435,750.8799,301.3291,745.6944,299.0685,752.708,305.9829" style="stroke: #000000; stroke-width: 1.0;"/><!--MD5=[e90bd6760a53ee1d708b73cc051d8227]
link _src to rss-parser--><path d="M735.541,221.901 C752.421,232.185 776.485,248.034 795,265 C807.128,276.1132 818.9,290.3972 827.629,301.8859 " fill="none" id="_src-&gt;rss-parser" style="stroke: #000000; stroke-width: 1.0;"/><polygon fill="#000000" points="830.702,305.981,828.4984,296.3818,827.7005,301.9821,822.1002,301.1842,830.702,305.981" style="stroke: #000000; stroke-width: 1.0;"/><script type="text/plantuml"><![CDATA[MD5=[4a1189b9da53deebfe3cc38de97b4881]
@startuml

scale max 1920 width
top to bottom direction

skinparam nodesep 15
skinparam ranksep 30
skinparam monochrome true
skinparam shadowing false
skinparam defaultFontName Tahoma
skinparam defaultFontSize 12
skinparam roundCorner 6
skinparam dpi 150
skinparam arrowColor black
skinparam arrowThickness 0.5
skinparam packageTitleAlignment left

skinparam usecase {
  borderThickness 0.5
}

skinparam rectangle {
  borderThickness 0.5
}

skinparam component {
  borderThickness 1
}


rectangle "Decoder" as _Decoder
(<b>feed-item</b>)
(<b>index.d</b>)
rectangle "ObjectID" as _ObjectID
rectangle "<b>src</b>" as _src

package "Dependencies" {
  [@morphic-ts]
  [express]
  [fp-ts]
  [fp-ts-contrib]
  [hyper-ts]
  [io-ts]
  [io-ts-reporters]
  [io-ts-types]
  [kill-port]
  [link-preview-js]
  [mongad]
  [mongodb]
  [monocle-ts]
  [p-map]
  [rss-parser]
}

_Decoder ----> [fp-ts]
_Decoder ----> [io-ts]
_Decoder ----> [mongodb]
_Decoder --> _ObjectID
(<b>feed-item</b>) --[thickness=1]> _Decoder
(<b>feed-item</b>) ----[thickness=1]> [io-ts]
_ObjectID ----> [fp-ts]
_ObjectID ----> [io-ts]
_ObjectID ----> [mongodb]
_src ---[thickness=1]> [@morphic-ts]
_src ---[thickness=1]> [express]
_src ---[thickness=1]> [fp-ts]
_src ---[thickness=1]> [fp-ts-contrib]
_src ---[thickness=1]> [hyper-ts]
_src ---[thickness=1]> [io-ts]
_src ---[thickness=1]> [io-ts-reporters]
_src ---[thickness=1]> [io-ts-types]
_src ---[thickness=1]> [kill-port]
_src ---[thickness=1]> [link-preview-js]
_src ---[thickness=1]> [mongad]
_src ---[thickness=1]> [monocle-ts]
_src ---[thickness=1]> [p-map]
_src ---[thickness=1]> [rss-parser]

@enduml


' View and edit on https://arkit.pro
]]></script></g></svg>