<?xml version="1.0" encoding="UTF-8" standalone="no"?><svg xmlns="http://www.w3.org/2000/svg" xmlns:xlink="http://www.w3.org/1999/xlink" contentScriptType="application/ecmascript" contentStyleType="text/css" height="368px" preserveAspectRatio="none" style="width:1410px;height:368px;" version="1.1" viewBox="0 0 1410 368" width="1410px" zoomAndPan="magnify"><defs/><g><!--MD5=[a6f11bb19cee6b13000111f5ad685e8b]
cluster Dependencies--><path d="M25,273 L119,273 A4.5,4.5 0 0 1 122,276 L129,293.4844 L1395,293.4844 A3,3 0 0 1 1398,296.4844 L1398,353 A3,3 0 0 1 1395,356 L25,356 A3,3 0 0 1 22,353 L22,276 A3,3 0 0 1 25,273 " fill="#FFFFFF" style="stroke: #000000; stroke-width: 1.5;"/><line style="stroke: #000000; stroke-width: 1.5;" x1="22" x2="129" y1="293.4844" y2="293.4844"/><text fill="#000000" font-family="Tahoma, sans-serif" font-size="12" font-weight="bold" lengthAdjust="spacingAndGlyphs" textLength="94" x="26" y="287.0059">Dependencies</text><!--MD5=[9600a392951073a2eca10c2b8ccabe41]
entity @morphic-ts--><rect fill="#F8F8F8" height="34.4844" rx="3" ry="3" style="stroke: #383838; stroke-width: 1.0;" width="95" x="1016.5" y="306"/><rect fill="#F8F8F8" height="5" style="stroke: #383838; stroke-width: 1.0;" width="10" x="1011.5" y="311"/><rect fill="#F8F8F8" height="5" style="stroke: #383838; stroke-width: 1.0;" width="10" x="1011.5" y="330.4844"/><text fill="#000000" font-family="Tahoma, sans-serif" font-size="12" lengthAdjust="spacingAndGlyphs" textLength="75" x="1026.5" y="328.0059">@morphic-ts</text><!--MD5=[6d151e53a42aadf92577082572a20d90]
entity express--><rect fill="#F8F8F8" height="34.4844" rx="3" ry="3" style="stroke: #383838; stroke-width: 1.0;" width="65" x="1126.5" y="306"/><rect fill="#F8F8F8" height="5" style="stroke: #383838; stroke-width: 1.0;" width="10" x="1121.5" y="311"/><rect fill="#F8F8F8" height="5" style="stroke: #383838; stroke-width: 1.0;" width="10" x="1121.5" y="330.4844"/><text fill="#000000" font-family="Tahoma, sans-serif" font-size="12" lengthAdjust="spacingAndGlyphs" textLength="45" x="1136.5" y="328.0059">express</text><!--MD5=[a897b08d9b98e0785c332a552b15bea5]
entity fp-ts--><rect fill="#F8F8F8" height="34.4844" rx="3" ry="3" style="stroke: #383838; stroke-width: 1.0;" width="47" x="190.5" y="306"/><rect fill="#F8F8F8" height="5" style="stroke: #383838; stroke-width: 1.0;" width="10" x="185.5" y="311"/><rect fill="#F8F8F8" height="5" style="stroke: #383838; stroke-width: 1.0;" width="10" x="185.5" y="330.4844"/><text fill="#000000" font-family="Tahoma, sans-serif" font-size="12" lengthAdjust="spacingAndGlyphs" textLength="27" x="200.5" y="328.0059">fp-ts</text><!--MD5=[af7a65f79cc7953c6331310fdf858e59]
entity fp-ts-contrib--><rect fill="#F8F8F8" height="34.4844" rx="3" ry="3" style="stroke: #383838; stroke-width: 1.0;" width="92" x="1207" y="306"/><rect fill="#F8F8F8" height="5" style="stroke: #383838; stroke-width: 1.0;" width="10" x="1202" y="311"/><rect fill="#F8F8F8" height="5" style="stroke: #383838; stroke-width: 1.0;" width="10" x="1202" y="330.4844"/><text fill="#000000" font-family="Tahoma, sans-serif" font-size="12" lengthAdjust="spacingAndGlyphs" textLength="72" x="1217" y="328.0059">fp-ts-contrib</text><!--MD5=[f91e7389d0b33d0c6ac8dece6097a7a3]
entity hyper-ts--><rect fill="#F8F8F8" height="34.4844" rx="3" ry="3" style="stroke: #383838; stroke-width: 1.0;" width="67" x="1314.5" y="306"/><rect fill="#F8F8F8" height="5" style="stroke: #383838; stroke-width: 1.0;" width="10" x="1309.5" y="311"/><rect fill="#F8F8F8" height="5" style="stroke: #383838; stroke-width: 1.0;" width="10" x="1309.5" y="330.4844"/><text fill="#000000" font-family="Tahoma, sans-serif" font-size="12" lengthAdjust="spacingAndGlyphs" textLength="47" x="1324.5" y="328.0059">hyper-ts</text><!--MD5=[ee7adb30b3ceacce2738fb1e11fd81d2]
entity io-ts--><rect fill="#F8F8F8" height="34.4844" rx="3" ry="3" style="stroke: #383838; stroke-width: 1.0;" width="47" x="38.5" y="306"/><rect fill="#F8F8F8" height="5" style="stroke: #383838; stroke-width: 1.0;" width="10" x="33.5" y="311"/><rect fill="#F8F8F8" height="5" style="stroke: #383838; stroke-width: 1.0;" width="10" x="33.5" y="330.4844"/><text fill="#000000" font-family="Tahoma, sans-serif" font-size="12" lengthAdjust="spacingAndGlyphs" textLength="27" x="48.5" y="328.0059">io-ts</text><!--MD5=[dad03e7644abd02146e2c0d1e714b6dd]
entity io-ts-reporters--><rect fill="#F8F8F8" height="34.4844" rx="3" ry="3" style="stroke: #383838; stroke-width: 1.0;" width="104" x="253" y="306"/><rect fill="#F8F8F8" height="5" style="stroke: #383838; stroke-width: 1.0;" width="10" x="248" y="311"/><rect fill="#F8F8F8" height="5" style="stroke: #383838; stroke-width: 1.0;" width="10" x="248" y="330.4844"/><text fill="#000000" font-family="Tahoma, sans-serif" font-size="12" lengthAdjust="spacingAndGlyphs" textLength="84" x="263" y="328.0059">io-ts-reporters</text><!--MD5=[c68f284d5a6ac642e5572fb2ea621849]
entity io-ts-types--><rect fill="#F8F8F8" height="34.4844" rx="3" ry="3" style="stroke: #383838; stroke-width: 1.0;" width="83" x="372.5" y="306"/><rect fill="#F8F8F8" height="5" style="stroke: #383838; stroke-width: 1.0;" width="10" x="367.5" y="311"/><rect fill="#F8F8F8" height="5" style="stroke: #383838; stroke-width: 1.0;" width="10" x="367.5" y="330.4844"/><text fill="#000000" font-family="Tahoma, sans-serif" font-size="12" lengthAdjust="spacingAndGlyphs" textLength="63" x="382.5" y="328.0059">io-ts-types</text><!--MD5=[133a23b31f055f7e42ddeb5e0fd593ef]
entity kill-port--><rect fill="#F8F8F8" height="34.4844" rx="3" ry="3" style="stroke: #383838; stroke-width: 1.0;" width="63" x="470.5" y="306"/><rect fill="#F8F8F8" height="5" style="stroke: #383838; stroke-width: 1.0;" width="10" x="465.5" y="311"/><rect fill="#F8F8F8" height="5" style="stroke: #383838; stroke-width: 1.0;" width="10" x="465.5" y="330.4844"/><text fill="#000000" font-family="Tahoma, sans-serif" font-size="12" lengthAdjust="spacingAndGlyphs" textLength="43" x="480.5" y="328.0059">kill-port</text><!--MD5=[b1987a8e0865e39e4dc7caa7c130a3a0]
entity link-preview-js--><rect fill="#F8F8F8" height="34.4844" rx="3" ry="3" style="stroke: #383838; stroke-width: 1.0;" width="103" x="548.5" y="306"/><rect fill="#F8F8F8" height="5" style="stroke: #383838; stroke-width: 1.0;" width="10" x="543.5" y="311"/><rect fill="#F8F8F8" height="5" style="stroke: #383838; stroke-width: 1.0;" width="10" x="543.5" y="330.4844"/><text fill="#000000" font-family="Tahoma, sans-serif" font-size="12" lengthAdjust="spacingAndGlyphs" textLength="83" x="558.5" y="328.0059">link-preview-js</text><!--MD5=[5895c803ff18b59dc95ef6fa79631782]
entity mongad--><rect fill="#F8F8F8" height="34.4844" rx="3" ry="3" style="stroke: #383838; stroke-width: 1.0;" width="67" x="666.5" y="306"/><rect fill="#F8F8F8" height="5" style="stroke: #383838; stroke-width: 1.0;" width="10" x="661.5" y="311"/><rect fill="#F8F8F8" height="5" style="stroke: #383838; stroke-width: 1.0;" width="10" x="661.5" y="330.4844"/><text fill="#000000" font-family="Tahoma, sans-serif" font-size="12" lengthAdjust="spacingAndGlyphs" textLength="47" x="676.5" y="328.0059">mongad</text><!--MD5=[920f55dacc69cbaf43b0aa823f7e1721]
entity mongodb--><rect fill="#F8F8F8" height="34.4844" rx="3" ry="3" style="stroke: #383838; stroke-width: 1.0;" width="75" x="100.5" y="306"/><rect fill="#F8F8F8" height="5" style="stroke: #383838; stroke-width: 1.0;" width="10" x="95.5" y="311"/><rect fill="#F8F8F8" height="5" style="stroke: #383838; stroke-width: 1.0;" width="10" x="95.5" y="330.4844"/><text fill="#000000" font-family="Tahoma, sans-serif" font-size="12" lengthAdjust="spacingAndGlyphs" textLength="55" x="110.5" y="328.0059">mongodb</text><!--MD5=[11cd576ddc5620e0ef9b3ff8d611450c]
entity monocle-ts--><rect fill="#F8F8F8" height="34.4844" rx="3" ry="3" style="stroke: #383838; stroke-width: 1.0;" width="87" x="748.5" y="306"/><rect fill="#F8F8F8" height="5" style="stroke: #383838; stroke-width: 1.0;" width="10" x="743.5" y="311"/><rect fill="#F8F8F8" height="5" style="stroke: #383838; stroke-width: 1.0;" width="10" x="743.5" y="330.4844"/><text fill="#000000" font-family="Tahoma, sans-serif" font-size="12" lengthAdjust="spacingAndGlyphs" textLength="67" x="758.5" y="328.0059">monocle-ts</text><!--MD5=[a70e7d2129acaf1951bb43421c1c8bad]
entity p-map--><rect fill="#F8F8F8" height="34.4844" rx="3" ry="3" style="stroke: #383838; stroke-width: 1.0;" width="57" x="850.5" y="306"/><rect fill="#F8F8F8" height="5" style="stroke: #383838; stroke-width: 1.0;" width="10" x="845.5" y="311"/><rect fill="#F8F8F8" height="5" style="stroke: #383838; stroke-width: 1.0;" width="10" x="845.5" y="330.4844"/><text fill="#000000" font-family="Tahoma, sans-serif" font-size="12" lengthAdjust="spacingAndGlyphs" textLength="37" x="860.5" y="328.0059">p-map</text><!--MD5=[67d61c289a8d04d791faf47ef2c10c45]
entity rss-parser--><rect fill="#F8F8F8" height="34.4844" rx="3" ry="3" style="stroke: #383838; stroke-width: 1.0;" width="79" x="922.5" y="306"/><rect fill="#F8F8F8" height="5" style="stroke: #383838; stroke-width: 1.0;" width="10" x="917.5" y="311"/><rect fill="#F8F8F8" height="5" style="stroke: #383838; stroke-width: 1.0;" width="10" x="917.5" y="330.4844"/><text fill="#000000" font-family="Tahoma, sans-serif" font-size="12" lengthAdjust="spacingAndGlyphs" textLength="59" x="932.5" y="328.0059">rss-parser</text><!--MD5=[5bdbf3ee910d2d20a914f3c8715067fe]
entity _Decoder--><rect fill="#F8F8F8" height="34.4844" rx="3" ry="3" style="stroke: #000000; stroke-width: 0.5;" width="69" x="68.5" y="64"/><text fill="#000000" font-family="Tahoma, sans-serif" font-size="12" lengthAdjust="spacingAndGlyphs" textLength="49" x="78.5" y="86.0059">Decoder</text><ellipse cx="73.7548" cy="21.242" fill="#F8F8F8" rx="48.2548" ry="13.242" style="stroke: #383838; stroke-width: 0.5;"/><text fill="#000000" font-family="Tahoma, sans-serif" font-size="12" font-weight="bold" lengthAdjust="spacingAndGlyphs" textLength="64" x="41.7548" y="24.9842">feed-item</text><ellipse cx="174.234" cy="21.242" fill="#F8F8F8" rx="36.234" ry="13.242" style="stroke: #383838; stroke-width: 0.5;"/><text fill="#000000" font-family="Tahoma, sans-serif" font-size="12" font-weight="bold" lengthAdjust="spacingAndGlyphs" textLength="47" x="150.734" y="24.9842">index.d</text><!--MD5=[3efb8ea02175e95885344873cf6d6174]
entity _ObjectID--><rect fill="#F8F8F8" height="34.4844" rx="3" ry="3" style="stroke: #000000; stroke-width: 0.5;" width="73" x="100.5" y="128"/><text fill="#000000" font-family="Tahoma, sans-serif" font-size="12" lengthAdjust="spacingAndGlyphs" textLength="53" x="110.5" y="150.0059">ObjectID</text><!--MD5=[97f7f883b367300b6c5dbae912d3eba8]
entity _src--><rect fill="#F8F8F8" height="34.4844" rx="3" ry="3" style="stroke: #000000; stroke-width: 0.5;" width="41" x="724.5" y="192"/><text fill="#000000" font-family="Tahoma, sans-serif" font-size="12" font-weight="bold" lengthAdjust="spacingAndGlyphs" textLength="21" x="734.5" y="214.0059">src</text><!--MD5=[9c0ba3eae829acffc4e39d66da514527]
link _Decoder to io-ts--><path d="M99.2625,98.135 C97.2815,106.938 94.8767,118.041 93,128 C81.2006,190.616 70.1141,265.153 64.9835,300.8695 " fill="none" id="_Decoder-&gt;io-ts" style="stroke: #000000; stroke-width: 0.5;"/><polygon fill="#000000" points="64.2703,305.8514,69.5054,297.5091,64.9789,300.9019,61.5861,296.3754,64.2703,305.8514" style="stroke: #000000; stroke-width: 0.5;"/><!--MD5=[885260d35ab799fa99a84e19499d627b]
link _Decoder to _ObjectID--><path d="M111.933,98.29 C116.117,105.918 121.148,115.094 125.602,123.216 " fill="none" id="_Decoder-&gt;_ObjectID" style="stroke: #000000; stroke-width: 0.5;"/><polygon fill="#000000" points="128.009,127.604,127.1888,117.7894,125.6048,123.2199,120.1743,121.636,128.009,127.604" style="stroke: #000000; stroke-width: 0.5;"/><!--MD5=[3e13e302077ebd47419b74621b663f21]
link <b>feed-item</b> to _Decoder--><path d="M80.0088,34.018 C83.6483,41.297 88.3898,50.78 92.6208,59.242 " fill="none" id="&lt;b&gt;feed-item&lt;/b&gt;-&gt;_Decoder" style="stroke: #000000; stroke-width: 1.0;"/><polygon fill="#000000" points="94.9086,63.817,94.4595,53.9784,92.6717,59.3453,87.3048,57.5575,94.9086,63.817" style="stroke: #000000; stroke-width: 1.0;"/><!--MD5=[74611c305bbc78f666043436133a016b]
link <b>feed-item</b> to io-ts--><path d="M69.0805,34.24 C60.8067,55.965 45,102.853 45,144 C45,144 45,144 45,210 C45,241.863 51.8087,278.2536 56.8082,300.6797 " fill="none" id="&lt;b&gt;feed-item&lt;/b&gt;-&gt;io-ts" style="stroke: #000000; stroke-width: 1.0;"/><polygon fill="#000000" points="57.9712,305.7945,59.8759,296.1316,56.8625,300.919,52.0751,297.9056,57.9712,305.7945" style="stroke: #000000; stroke-width: 1.0;"/><!--MD5=[b956c3c0c34c1e14b4c0e600e0fc7536]
link _ObjectID to fp-ts--><path d="M144.106,162.242 C158.087,194.199 189.159,265.222 204.73,300.812 " fill="none" id="_ObjectID-&gt;fp-ts" style="stroke: #000000; stroke-width: 0.5;"/><polygon fill="#000000" points="206.911,305.7971,206.9676,295.9484,204.9066,301.2165,199.6385,299.1555,206.911,305.7971" style="stroke: #000000; stroke-width: 0.5;"/><!--MD5=[17b4dcbadbb271c797b2ae6a3fc29c83]
link _ObjectID to io-ts--><path d="M130.079,162.242 C116.461,194.199 86.1953,265.222 71.029,300.812 " fill="none" id="_ObjectID-&gt;io-ts" style="stroke: #000000; stroke-width: 0.5;"/><polygon fill="#000000" points="68.9047,305.7971,76.1129,299.0858,70.8649,301.1974,68.7533,295.9494,68.9047,305.7971" style="stroke: #000000; stroke-width: 0.5;"/><!--MD5=[a60aa3f81b126dbec5aea61a1dde715f]
link _ObjectID to mongodb--><path d="M137.092,162.242 C137.273,194.068 137.674,264.64 137.877,300.3726 " fill="none" id="_ObjectID-&gt;mongodb" style="stroke: #000000; stroke-width: 0.5;"/><polygon fill="#000000" points="137.908,305.7971,141.8568,296.7745,137.8796,300.7972,133.8569,296.82,137.908,305.7971" style="stroke: #000000; stroke-width: 0.5;"/><!--MD5=[d3361d2f54dedba4dd8d0d0c2197d0b4]
link _src to @morphic-ts--><path d="M765.603,210.249 C812.002,211.636 927.023,219.754 1009,265 C1025.23,273.9551 1039.61,289.278 1049.59,301.7826 " fill="none" id="_src-&gt;@morphic-ts" style="stroke: #000000; stroke-width: 1.0;"/><polygon fill="#000000" points="1052.81,305.902,1050.4283,296.3455,1049.7347,301.9596,1044.1205,301.266,1052.81,305.902" style="stroke: #000000; stroke-width: 1.0;"/><!--MD5=[a6d8f84db7705581caadaf2790b8284f]
link _src to express--><path d="M765.6,210.908 C834.929,214.284 1058.8,227.89 1119,265 C1132.84,273.532 1143.18,288.8301 1149.87,301.4309 " fill="none" id="_src-&gt;express" style="stroke: #000000; stroke-width: 1.0;"/><polygon fill="#000000" points="1152.18,305.9337,1151.6494,296.0991,1149.9061,301.4807,1144.5246,299.7374,1152.18,305.9337" style="stroke: #000000; stroke-width: 1.0;"/><!--MD5=[c103dfc60bbf72da249c8a3150048a67]
link _src to fp-ts--><path d="M724.296,209.789 C640.248,209.302 325.215,211.161 245,265 C232.532,273.3685 224.643,288.4773 219.945,301.0376 " fill="none" id="_src-&gt;fp-ts" style="stroke: #000000; stroke-width: 1.0;"/><polygon fill="#000000" points="218.239,305.883,225.0006,298.722,219.8993,301.1667,217.4546,296.0654,218.239,305.883" style="stroke: #000000; stroke-width: 1.0;"/><!--MD5=[3681f549d6f2f4403a37cfd4d44beaa3]
link _src to fp-ts-contrib--><path d="M765.576,210.655 C843.672,213.419 1121.26,225.855 1199,265 C1215.52,273.3173 1229.69,288.8268 1239.37,301.57 " fill="none" id="_src-&gt;fp-ts-contrib" style="stroke: #000000; stroke-width: 1.0;"/><polygon fill="#000000" points="1242.48,305.7711,1240.3385,296.1579,1239.5044,301.7529,1233.9094,300.9189,1242.48,305.7711" style="stroke: #000000; stroke-width: 1.0;"/><!--MD5=[159ff388eb2f521b75b94582636bea89]
link _src to hyper-ts--><path d="M765.583,209.789 C855.33,209.202 1212.16,210.398 1307,265 C1321.3,273.2338 1331.94,288.6988 1338.8,301.4447 " fill="none" id="_src-&gt;hyper-ts" style="stroke: #000000; stroke-width: 1.0;"/><polygon fill="#000000" points="1341.15,305.9991,1340.5731,296.1672,1338.8552,301.5568,1333.4655,299.8389,1341.15,305.9991" style="stroke: #000000; stroke-width: 1.0;"/><!--MD5=[3f40ecef6d83cdfc18ae6286e78b6a61]
link _src to io-ts--><path d="M724.28,211.195 C616.105,217.502 120.109,247.301 93,265 C80.4264,273.2094 72.5418,288.3248 67.8722,300.928 " fill="none" id="_src-&gt;io-ts" style="stroke: #000000; stroke-width: 1.0;"/><polygon fill="#000000" points="66.1792,305.7921,72.9155,298.6073,67.8229,301.07,65.3602,295.9774,66.1792,305.7921" style="stroke: #000000; stroke-width: 1.0;"/><!--MD5=[aabe3fd7510a97ee44a76502c478cbee]
link _src to io-ts-reporters--><path d="M724.362,212.966 C645.294,224.332 366.03,264.5 365,265 C347.311,273.583 331.389,289.2772 320.399,302.0275 " fill="none" id="_src-&gt;io-ts-reporters" style="stroke: #000000; stroke-width: 1.0;"/><polygon fill="#000000" points="317.15,305.8788,326.0099,301.5774,320.3734,302.0565,319.8942,296.42,317.15,305.8788" style="stroke: #000000; stroke-width: 1.0;"/><!--MD5=[a74eb638c0e463e0fa5ff2c65f170e88]
link _src to io-ts-types--><path d="M724.476,215.098 C686.102,224.485 600.78,244.666 528,257 C499.302,261.863 488.66,251.261 463,265 C447.393,273.3568 434.566,288.8639 425.956,301.5961 " fill="none" id="_src-&gt;io-ts-types" style="stroke: #000000; stroke-width: 1.0;"/><polygon fill="#000000" points="423.2,305.7933,431.4834,300.4655,425.9443,301.6137,424.7961,296.0746,423.2,305.7933" style="stroke: #000000; stroke-width: 1.0;"/><!--MD5=[db11e8e89341290efefe006fbcbc22ed]
link _src to kill-port--><path d="M724.375,217.826 C696.214,228.225 643.974,246.504 598,257 C573.06,262.694 562.741,251.518 541,265 C527.296,273.4984 517.227,288.7982 510.756,301.4082 " fill="none" id="_src-&gt;kill-port" style="stroke: #000000; stroke-width: 1.0;"/><polygon fill="#000000" points="508.535,305.9147,516.1021,299.6109,510.7458,301.43,508.9266,296.0736,508.535,305.9147" style="stroke: #000000; stroke-width: 1.0;"/><!--MD5=[a197a3a1744bf7f4fee6d555575e3006]
link _src to link-preview-js--><path d="M724.418,221.589 C706.494,232.043 680.139,248.302 659,265 C644.641,276.3424 629.835,290.6565 618.646,302.1028 " fill="none" id="_src-&gt;link-preview-js" style="stroke: #000000; stroke-width: 1.0;"/><polygon fill="#000000" points="614.996,305.8662,624.1328,302.1894,618.4766,302.2766,618.3894,296.6204,614.996,305.8662" style="stroke: #000000; stroke-width: 1.0;"/><!--MD5=[275fe6eae3f031609e7f91579b2d9adc]
link _src to mongad--><path d="M738.553,226.047 C730.6,245.841 717.063,279.5312 708.33,301.2675 " fill="none" id="_src-&gt;mongad" style="stroke: #000000; stroke-width: 1.0;"/><polygon fill="#000000" points="706.435,305.9829,713.5025,299.1236,708.2995,301.3435,706.0795,296.1405,706.435,305.9829" style="stroke: #000000; stroke-width: 1.0;"/><!--MD5=[2c5761db8f00ab7abbcbd6d4ce48cd87]
link _src to monocle-ts--><path d="M751.734,226.047 C760.04,245.841 774.178,279.5312 783.3,301.2675 " fill="none" id="_src-&gt;monocle-ts" style="stroke: #000000; stroke-width: 1.0;"/><polygon fill="#000000" points="785.279,305.9829,785.4843,296.1362,783.344,301.3725,778.1077,299.2322,785.279,305.9829" style="stroke: #000000; stroke-width: 1.0;"/><!--MD5=[66d66cbc54d461607222c5eb6756b0a3]
link _src to p-map--><path d="M765.664,217.998 C786.923,226.994 820.078,243.238 843,265 C853.94,275.3869 862.99,289.7636 869.279,301.4796 " fill="none" id="_src-&gt;p-map" style="stroke: #000000; stroke-width: 1.0;"/><polygon fill="#000000" points="871.636,305.989,871.0126,296.1599,869.3202,301.5576,863.9224,299.8652,871.636,305.989" style="stroke: #000000; stroke-width: 1.0;"/><!--MD5=[e90bd6760a53ee1d708b73cc051d8227]
link _src to rss-parser--><path d="M765.75,212.855 C799.53,218.303 867.414,232.648 915,265 C928.981,274.5053 941.025,289.3337 949.42,301.4835 " fill="none" id="_src-&gt;rss-parser" style="stroke: #000000; stroke-width: 1.0;"/><polygon fill="#000000" points="952.345,305.8238,950.6337,296.1248,949.5513,301.6771,943.999,300.5947,952.345,305.8238" style="stroke: #000000; stroke-width: 1.0;"/><script type="text/plantuml"><![CDATA[MD5=[4477042bacd15626b4924a8edff25cc2]
@startuml

scale max 1920 width
top to bottom direction

skinparam nodesep 15
skinparam ranksep 30
skinparam monochrome true
skinparam shadowing false
skinparam defaultFontName Tahoma
skinparam defaultFontSize 12
skinparam roundCorner 6
skinparam dpi 150
skinparam arrowColor black
skinparam arrowThickness 0.5
skinparam packageTitleAlignment left

skinparam usecase {
  borderThickness 0.5
}

skinparam rectangle {
  borderThickness 0.5
}

skinparam component {
  borderThickness 1
}


rectangle "Decoder" as _Decoder
(<b>feed-item</b>)
(<b>index.d</b>)
rectangle "ObjectID" as _ObjectID
rectangle "<b>src</b>" as _src

package "Dependencies" {
  [@morphic-ts]
  [express]
  [fp-ts]
  [fp-ts-contrib]
  [hyper-ts]
  [io-ts]
  [io-ts-reporters]
  [io-ts-types]
  [kill-port]
  [link-preview-js]
  [mongad]
  [mongodb]
  [monocle-ts]
  [p-map]
  [rss-parser]
}

_Decoder ----> [io-ts]
_Decoder --> _ObjectID
(<b>feed-item</b>) --[thickness=1]> _Decoder
(<b>feed-item</b>) ----[thickness=1]> [io-ts]
_ObjectID ----> [fp-ts]
_ObjectID ----> [io-ts]
_ObjectID ----> [mongodb]
_src ---[thickness=1]> [@morphic-ts]
_src ---[thickness=1]> [express]
_src ---[thickness=1]> [fp-ts]
_src ---[thickness=1]> [fp-ts-contrib]
_src ---[thickness=1]> [hyper-ts]
_src ---[thickness=1]> [io-ts]
_src ---[thickness=1]> [io-ts-reporters]
_src ---[thickness=1]> [io-ts-types]
_src ---[thickness=1]> [kill-port]
_src ---[thickness=1]> [link-preview-js]
_src ---[thickness=1]> [mongad]
_src ---[thickness=1]> [monocle-ts]
_src ---[thickness=1]> [p-map]
_src ---[thickness=1]> [rss-parser]

@enduml


' View and edit on https://arkit.pro
]]></script></g></svg>